<?xml version="1.0" encoding="iso-8859-1"?>
<!-- Generator: Adobe Illustrator 19.1.1, SVG Export Plug-In . SVG Version: 6.00 Build 0)  -->
<!DOCTYPE svg PUBLIC "-//W3C//DTD SVG 1.0//EN" "http://www.w3.org/TR/2001/REC-SVG-20010904/DTD/svg10.dtd">
<svg version="1.0" id="Layer_1" xmlns="http://www.w3.org/2000/svg" xmlns:xlink="http://www.w3.org/1999/xlink" x="0px" y="0px"
	 width="151px" height="82px" viewBox="-436 344 151 82" style="enable-background:new -436 344 151 82;" xml:space="preserve">
<style type="text/css">
	.st0{opacity:0.4;fill:#333333;enable-background:new    ;}
	.st1{fill:#244386;}
	.st2{fill:#FFFFFF;}
	.st3{fill:#244386;stroke:#FFFFFF;stroke-width:1.3766;}
	.st4{fill:#FFFFFF;stroke:#999999;stroke-width:0.8469;}
</style>
<g>
	<g>
		<g>
			<path class="st0" d="M-341,406.4c-10.5,0-22.4,3.4-26.5,7.5c-3.2,3.2-1,6,5.3,7.1c0.9,1.4,1.3,3.1,1.3,3.1l0.5,1.9l4.2-1.9
				c0,0,3.8-1.7,7.6-3.1c8.4-1.1,16-3.9,19.1-7C-325.4,409.7-330.5,406.4-341,406.4z"/>
			<g>
				<path class="st1" d="M-341.7,404.2c0-7.8-8.4-14.2-18.8-14.2c-10.4,0-18.8,6.3-18.8,14.2c0,6.3,5.4,11.6,13,13.5
					c3.1,3.7,5.9,8.2,5.9,8.2s2.9-4.6,6-8.3C-347,415.6-341.7,410.4-341.7,404.2z"/>
			</g>
		</g>
		<g>
			<path class="st2" d="M-360.5,403L-360.5,403h7.3c0,0,3.4-0.3,5.7-0.9c0,0-3.3-0.8-4.4-0.7c-0.3,0-1.9-3.3-4.6-7
				c-0.4-0.6-0.8-1.8-2.8,0.7c0,0-0.5,0.6-1.1,0.5c-0.5,0-1.1-0.5-1.1-0.5c-2-2.5-2.4-1.3-2.8-0.7c-2.7,3.7-4.3,7-4.6,7
				c-1.1-0.1-4.4,0.7-4.4,0.7c2.2,0.6,5.7,0.9,5.7,0.9H-360.5z"/>
			<path class="st3" d="M-362.1,406c-2.8,0.1-4.3-1.8-4.3-1.8C-365.3,408.5-362.1,406-362.1,406z"/>
			<path class="st3" d="M-354.6,404.2c0,0-1.5,1.9-4.3,1.8C-358.9,406-355.7,408.5-354.6,404.2z"/>
			<path class="st2" d="M-360.4,415.1c2.3,0,6.8-1.2,7.2-6h-14.6C-367.8,409.1-367.3,415.1-360.4,415.1z"/>
		</g>
	</g>

</g>
</svg>
