<?xml version="1.0" encoding="iso-8859-1"?>
<!-- Generator: Adobe Illustrator 19.1.1, SVG Export Plug-In . SVG Version: 6.00 Build 0)  -->
<!DOCTYPE svg PUBLIC "-//W3C//DTD SVG 1.0//EN" "http://www.w3.org/TR/2001/REC-SVG-20010904/DTD/svg10.dtd">
<svg version="1.0" id="Layer_1" xmlns="http://www.w3.org/2000/svg" xmlns:xlink="http://www.w3.org/1999/xlink" x="0px" y="0px"
	 width="151px" height="82px" viewBox="-436 344 151 82" style="enable-background:new -436 344 151 82;" xml:space="preserve">
<style type="text/css">
	.st0{opacity:0.4;fill:#333333;enable-background:new    ;}
	.st1{fill:#1F81E5;}
	.st2{fill:#FFFFFF;}
	.st3{fill:#FFFFFF;stroke:#999999;stroke-width:0.8469;}
</style>
<g>
	<g>
		<g>
			<path class="st0" d="M-341,406.4c-10.5,0-22.4,3.4-26.5,7.5c-3.2,3.2-1,6,5.3,7.1c0.9,1.4,1.3,3.1,1.3,3.1l0.5,1.9l4.2-1.9
				c0,0,3.8-1.7,7.6-3.1c8.4-1.1,16-3.9,19.1-7C-325.4,409.8-330.5,406.4-341,406.4z"/>
			<g>
				<path class="st1" d="M-341.7,404.2c0-7.8-8.4-14.2-18.8-14.2c-10.4,0-18.8,6.3-18.8,14.2c0,6.3,5.4,11.6,13,13.5
					c3.1,3.7,5.9,8.2,5.9,8.2s2.9-4.6,6-8.3C-347,415.7-341.7,410.4-341.7,404.2z"/>
			</g>
		</g>
		<g>
			<path class="st2" d="M-372.8,405.4c0.8,0.9,1.7,1.8,2.5,2.7c1.1,1.2,2.2,2.4,3.3,3.6c1,1.1,2.5,1.2,3.6,0.2
				c0.2-0.2,0.4-0.5,0.6-0.8c0-0.1,0-0.2,0.1-0.2c0.1-0.3,0.1-0.6,0.2-0.8c-0.1-0.1,0-0.2,0-0.2c0-0.7-0.3-1.3-0.7-1.8
				c-1-1-1.9-2.1-2.9-3.1c-1-1.1-1.9-2.1-2.9-3.2c-1.1-1.1-2.8-1.1-3.8,0C-373.8,402.8-373.8,404.3-372.8,405.4z M-372.5,403.4
				c0.1-0.3,0.2-0.5,0.3-0.7c0.7-0.8,1.9-0.9,2.6-0.1c0.8,0.8,1.6,1.7,2.3,2.5c0.1,0.1,0.1,0.1,0,0.2c-0.8,0.7-1.5,1.4-2.3,2.1
				c-0.1,0.1-0.1,0.1-0.2,0c-0.8-0.8-1.5-1.7-2.3-2.5C-372.4,404.5-372.6,404-372.5,403.4z"/>
			<path class="st2" d="M-357.3,406.2c0-0.2,0.1-0.4,0.2-0.6c0-0.1,0.1-0.1,0.1-0.2c0.8-0.9,1.6-1.8,2.4-2.7
				c1.9-2.1,3.7-4.3,5.6-6.4c0.1-0.1,0.2-0.2,0.2-0.3l0,0c0,0,0,0-0.1,0c-5.9,0-11.9,0-17.8,0h-0.1c0,0,0,0,0.1,0.1
				c1.1,1.3,2.3,2.7,3.4,4c1.5,1.7,3,3.5,4.5,5.2c0.1,0.1,0.2,0.3,0.3,0.4c0.1,0.1,0.2,0.3,0.2,0.5c0,0.1,0,0.3,0,0.4
				c0,0.5,0,1,0,1.6c0,1.5,0,2.9,0,4.4c0,0.1,0,0.3,0,0.4c0,0.2-0.1,0.3-0.3,0.3c-0.1,0-0.1,0-0.2,0.1c-0.3,0.1-0.6,0.1-0.9,0.2
				c-0.4,0.1-0.8,0.1-1.2,0.2c-0.5,0.1-1,0.1-1.4,0.2c-0.3,0-0.5,0.1-0.8,0.1c0,0-0.1,0,0,0.1c0,0.1,0,0.3,0,0.4c3.5,0,7,0,10.5,0
				l0,0c0-0.1,0-0.2,0-0.3v-0.1c-0.1,0-0.2,0-0.3-0.1c-0.6-0.1-1.2-0.2-1.8-0.3s-1.3-0.2-1.9-0.3c-0.1,0-0.3,0-0.4-0.1
				c-0.2-0.1-0.3-0.2-0.3-0.3s0-0.3,0-0.4c0-1.9,0-3.7,0-5.6C-357.3,406.7-357.3,406.5-357.3,406.2z M-363.5,398.4
				c-0.1,0-0.1,0-0.1-0.1c-0.4-0.5-0.8-1-1.2-1.5c0,0,0-0.1-0.1-0.1c4.8,0,9.7,0,14.5,0l0,0c-0.4,0.5-0.9,1-1.3,1.6h-0.1h-0.1
				C-355.7,398.4-359.6,398.4-363.5,398.4z"/>
		</g>
	</g>
</g>
</svg>
