<?xml version="1.0" encoding="iso-8859-1"?>
<!-- Generator: Adobe Illustrator 19.1.1, SVG Export Plug-In . SVG Version: 6.00 Build 0)  -->
<!DOCTYPE svg PUBLIC "-//W3C//DTD SVG 1.0//EN" "http://www.w3.org/TR/2001/REC-SVG-20010904/DTD/svg10.dtd">
<svg version="1.0" id="Layer_1" xmlns="http://www.w3.org/2000/svg" xmlns:xlink="http://www.w3.org/1999/xlink" x="0px" y="0px"
	 width="151px" height="82px" viewBox="-436 344 151 82" style="enable-background:new -436 344 151 82;" xml:space="preserve">
<style type="text/css">
	.st0{opacity:0.4;fill:#333333;enable-background:new    ;}
	.st1{fill:#9C27B0;}
	.st2{fill:#FFFFFF;}
	.st3{fill:#FFFFFF;stroke:#999999;stroke-width:0.8469;}
</style>
<g>
	<g>
		<g>
			<path class="st0" d="M-341.1,406.4c-10.5,0-22.4,3.4-26.5,7.5c-3.2,3.2-1,6,5.3,7.1c0.9,1.4,1.3,3.1,1.3,3.1l0.5,1.9l4.2-1.9
				c0,0,3.8-1.7,7.6-3.1c8.4-1.1,16-3.9,19.1-7C-325.5,409.7-330.6,406.4-341.1,406.4z"/>
			<g>
				<path class="st1" d="M-341.9,404.2c0-7.8-8.4-14.2-18.8-14.2c-10.4,0-18.8,6.3-18.8,14.2c0,6.3,5.4,11.6,13,13.5
					c3.1,3.7,5.9,8.2,5.9,8.2s2.9-4.6,6-8.3C-347.1,415.6-341.9,410.4-341.9,404.2z"/>
			</g>
		</g>
		<path class="st2" d="M-354.6,395.8c-1.5-1.4-4.3-1.6-5.7-1.6h-0.1c-0.1,0-0.1,0-0.2,0s-0.1,0-0.2,0h-0.1c-1.5,0-4.2,0.3-5.7,1.6
			c-0.3,0.2-3.5,3-3.5,8.1c0,0,0,4.9,0.1,6.6c0.1,0.7,0.3,2,2,1.8c0.9-0.1,1.5-0.4,1.5-3.2h5.3h1.3h5.3c0,2.8,0.6,3.1,1.5,3.2
			c1.6,0.2,1.9-1.2,2-1.8c0.2-1.6,0.1-6.6,0.1-6.6C-351.1,398.8-354.3,396-354.6,395.8z M-365.5,407.1c-1.4,0-2.5-0.8-2.5-1.9
			c0-1,1.1-1.8,2.5-1.8s2.5,0.8,2.5,1.8C-363,406.3-364.1,407.1-365.5,407.1z M-361.3,399.8h-6.5c0.8-2.9,2.6-3.8,2.6-3.8
			c1.1-0.5,3.2-0.6,4.6-0.7c1.4,0,3.4,0.1,4.6,0.7c0,0,1.8,1,2.6,3.8h-6.5H-361.3z M-355.7,407.1c-1.4,0-2.5-0.8-2.5-1.9
			c0-1,1.1-1.8,2.5-1.8s2.5,0.8,2.5,1.8C-353.2,406.3-354.3,407.1-355.7,407.1z"/>
	</g>
</g>
</svg>
