<?xml version="1.0" encoding="iso-8859-1"?>
<!-- Generator: Adobe Illustrator 19.1.1, SVG Export Plug-In . SVG Version: 6.00 Build 0)  -->
<!DOCTYPE svg PUBLIC "-//W3C//DTD SVG 1.0//EN" "http://www.w3.org/TR/2001/REC-SVG-20010904/DTD/svg10.dtd">
<svg version="1.0" id="Layer_1" xmlns="http://www.w3.org/2000/svg" xmlns:xlink="http://www.w3.org/1999/xlink" x="0px" y="0px"
	 width="151px" height="82px" viewBox="-436 344 151 82" style="enable-background:new -436 344 151 82;" xml:space="preserve">
<style type="text/css">
	.st0{opacity:0.4;fill:#333333;enable-background:new    ;}
	.st1{fill:#A81E2C;}
	.st2{fill:#FFFFFF;}
	.st3{fill:#FFFFFF;stroke:#999999;stroke-width:0.8469;}
</style>
<g>
	<g>
		<g>
			<path class="st0" d="M-341,406.4c-10.5,0-22.4,3.4-26.5,7.5c-3.2,3.2-1,6,5.3,7.1c0.9,1.4,1.3,3.1,1.3,3.1l0.5,1.9l4.2-1.9
				c0,0,3.8-1.7,7.6-3.1c8.4-1.1,16-3.9,19.1-7C-325.4,409.8-330.5,406.4-341,406.4z"/>
			<g>
				<path class="st1" d="M-341.7,404.3c0-7.8-8.4-14.2-18.8-14.2c-10.4,0-18.8,6.3-18.8,14.2c0,6.3,5.4,11.6,13,13.5
					c3.1,3.7,5.9,8.2,5.9,8.2s2.9-4.6,6-8.3C-347,415.7-341.7,410.5-341.7,404.3z"/>
			</g>
		</g>
		<path class="st2" d="M-358.8,401.5l2-3.9c0.3-0.6,1.1-0.9,1.7-0.6h0.1c0.6,0.3,0.9,1.1,0.6,1.7l-2,3.9c-0.3,0.6-1.1,0.9-1.7,0.6
			h-0.1C-358.9,403-359.1,402.2-358.8,401.5z M-352.5,400.4L-352.5,400.4c-0.7-0.4-1.5-0.1-1.8,0.6l-1.6,2.9c-0.3,0.6,0,1.4,0.6,1.7
			h0.1c0.6,0.3,1.4,0,1.7-0.6l1.6-2.9C-351.5,401.5-351.8,400.7-352.5,400.4z M-356.9,404.6c0,0-3.5,0.1-3.2-2.4h-3.6
			c0,0-0.7-0.2-1.1-0.9h3.3c0.8,0,1.5-0.7,1.5-1.5v-0.1c0-0.8-0.7-1.4-1.5-1.4h-3.9l0,0l0,0c0,0-1.8-0.2-2.5,1.7l-1.5,5.2
			c0,0-0.5,1.5,0.7,2.5l1.3,1.3c0,0,0.8,0.7,0.8,2.2v3.3h10.2v-2c0,0,0-0.8,0.6-1.2c0,0,0.4-0.1,1.2-2.2l1-2.6
			C-353.5,406.6-356.7,407.7-356.9,404.6z M-361.4,396.4c0.3-0.6,0-1.4-0.6-1.8h-0.1c-0.6-0.3-1.4,0-1.7,0.6l-1.2,2.3h3
			L-361.4,396.4z M-358.9,399.3v0.5l1.5-3.1c0.3-0.6,0-1.4-0.6-1.7h-0.1c-0.6-0.3-1.4,0-1.7,0.6l-1,2h0.1
			C-359.8,397.5-358.9,398.3-358.9,399.3z"/>
	</g>
</g>
</svg>
