<?xml version="1.0" encoding="iso-8859-1"?>
<!-- Generator: Adobe Illustrator 19.1.1, SVG Export Plug-In . SVG Version: 6.00 Build 0)  -->
<!DOCTYPE svg PUBLIC "-//W3C//DTD SVG 1.0//EN" "http://www.w3.org/TR/2001/REC-SVG-20010904/DTD/svg10.dtd">
<svg version="1.0" id="Layer_1" xmlns="http://www.w3.org/2000/svg" xmlns:xlink="http://www.w3.org/1999/xlink" x="0px" y="0px"
	 width="151px" height="82px" viewBox="-436 344 151 82" style="enable-background:new -436 344 151 82;" xml:space="preserve">
<style type="text/css">
	.st0{opacity:0.4;fill:#333333;enable-background:new    ;}
	.st1{fill:#FFFFFF;}
	.st2{fill:#FFFFFF;stroke:#999999;stroke-width:0.8469;}
</style>
<g>
	<g>
		<g>
			<path class="st0" d="M-341.3,406.4c-10.5,0-22.4,3.4-26.5,7.5c-3.2,3.2-1,6,5.3,7.1c0.9,1.4,1.3,3.1,1.3,3.1l0.5,1.9l4.2-1.9
				c0,0,3.8-1.7,7.6-3.1c8.4-1.1,16-3.9,19.1-7C-325.6,409.7-330.8,406.4-341.3,406.4z"/>
			<g>
				<path d="M-342,404.2c0-7.8-8.4-14.2-18.8-14.2c-10.4,0-18.8,6.3-18.8,14.2c0,6.3,5.4,11.6,13,13.5c3.1,3.7,5.9,8.2,5.9,8.2
					s2.9-4.6,6-8.3C-347.3,415.6-342,410.4-342,404.2z"/>
			</g>
		</g>
		<path class="st1" d="M-348.4,404.2c-1.4-7.3-12.2-5.8-12.4-5.7c-0.2,0-11-1.5-12.4,5.7c-0.4,2.1-0.5,6.1,6.2,5.9
			c0,0,2.9,0.3,4.3-3c0.2-0.4,0.6-0.5,1-0.5c0.6-0.1,1.3-0.1,1.9,0c0.4,0,0.8,0.1,1,0.5c1.3,3.3,4.3,3,4.3,3
			C-347.9,410.3-348,406.3-348.4,404.2z M-363.5,404.6c-0.5,1.1-2.2,1.8-3.4,1.8c-0.8,0-1.5-0.3-2.2-0.7c-0.4-0.2-0.9-0.8-0.9-1.3
			c-0.2-1,0.9-1.8,1.7-2.2c0.8-0.5,1.9-0.6,2.8-0.4c0.6,0.1,1.2,0.3,1.7,0.7c0.1,0.1,0.1,0.1,0.2,0.2
			C-363.3,403.2-363.2,403.9-363.5,404.6z M-350.7,404.4c-0.1,0.5-0.5,1.1-0.9,1.3c-0.7,0.4-1.4,0.7-2.2,0.7c-1.1,0-2.8-0.8-3.4-1.8
			c-0.3-0.6-0.2-1.3,0.2-1.9c0.1-0.1,0.1-0.1,0.2-0.2c0.4-0.5,1-0.6,1.7-0.7c0.9-0.2,2,0,2.8,0.4
			C-351.6,402.6-350.6,403.5-350.7,404.4z"/>
	</g>
</g>
</svg>
