<?xml version="1.0" encoding="iso-8859-1"?>
<!-- Generator: Adobe Illustrator 19.1.1, SVG Export Plug-In . SVG Version: 6.00 Build 0)  -->
<!DOCTYPE svg PUBLIC "-//W3C//DTD SVG 1.0//EN" "http://www.w3.org/TR/2001/REC-SVG-20010904/DTD/svg10.dtd">
<svg version="1.0" id="Layer_1" xmlns="http://www.w3.org/2000/svg" xmlns:xlink="http://www.w3.org/1999/xlink" x="0px" y="0px"
	 width="151px" height="82px" viewBox="-436 344 151 82" style="enable-background:new -436 344 151 82;" xml:space="preserve">
<style type="text/css">
	.st0{opacity:0.4;fill:#333333;enable-background:new    ;}
	.st1{fill:#25C827;}
	.st2{fill:#FFFFFF;}
	.st3{fill:#FFFFFF;stroke:#999999;stroke-width:0.8469;}
</style>
<g>
	<g>
		<g>
			<path class="st0" d="M-341.1,406.4c-10.5,0-22.4,3.4-26.5,7.5c-3.2,3.2-1,6,5.3,7.1c0.9,1.4,1.3,3.1,1.3,3.1l0.5,1.9l4.2-1.9
				c0,0,3.8-1.7,7.6-3.1c8.4-1.1,16-3.9,19.1-7C-325.5,409.8-330.6,406.4-341.1,406.4z"/>
			<g>
				<path class="st1" d="M-341.9,404.3c0-7.8-8.4-14.2-18.8-14.2c-10.4,0-18.8,6.3-18.8,14.2c0,6.3,5.4,11.6,13,13.5
					c3.1,3.7,5.9,8.2,5.9,8.2s2.9-4.6,6-8.3C-347.1,415.7-341.9,410.5-341.9,404.3z"/>
			</g>
		</g>
		<path class="st2" d="M-370.7,406c0-0.3,0.2-0.5,0.5-0.5h5.5c0.3,0,0.5,0.2,0.5,0.5s-0.2,0.5-0.5,0.5h-5.5
			C-370.5,406.5-370.7,406.3-370.7,406z M-370.2,408.9h9.6c0.3,0,0.5-0.2,0.5-0.5c0-0.3-0.2-0.5-0.5-0.5h-9.6
			c-0.3,0-0.5,0.2-0.5,0.5C-370.7,408.7-370.5,408.9-370.2,408.9z M-370.7,398.6h13.9c0.2-0.2,0.4-0.4,0.6-0.6
			c0.1,0,0.1-0.1,0.2-0.1h-14.7c-1.4,0-2.5,1.1-2.5,2.5v8c0,1.4,1.1,2.5,2.5,2.5h13.9c-0.3-0.2-0.6-0.5-0.9-0.8l0,0h-13
			c-0.9,0-1.7-0.8-1.7-1.7v-4.6h14.9c-0.3-0.6-0.4-1.3-0.4-2c0-0.6,0.1-1.1,0.3-1.6h-14.7C-372.3,399.3-371.6,398.6-370.7,398.6z
			 M-348,406.7c0,0.5-0.1,1-0.3,1.4c-0.2,0.4-0.5,0.8-0.8,1.1c-0.3,0.3-0.7,0.5-1.2,0.7c-0.4,0.2-0.9,0.3-1.4,0.3v2.3h-0.9v-2.2
			c-0.7,0-1.4-0.1-2-0.3c-0.6-0.2-1.2-0.6-1.7-1.1l1.5-1.5c0.3,0.4,0.6,0.6,1,0.8c0.4,0.2,0.8,0.3,1.3,0.4v-3.4h-0.1
			c-0.5-0.1-0.9-0.3-1.3-0.4c-0.4-0.2-0.8-0.4-1.1-0.6c-0.3-0.3-0.6-0.6-0.7-0.9c-0.2-0.4-0.3-0.8-0.3-1.3s0.1-0.9,0.3-1.3
			c0.2-0.4,0.5-0.7,0.8-1c0.3-0.3,0.7-0.5,1.1-0.7c0.4-0.2,0.9-0.3,1.3-0.3v-2.2h0.9v2.2h0.1c0.5,0,1.1,0.1,1.7,0.3
			c0.6,0.2,1.1,0.5,1.5,0.8l-1.3,1.5c-0.2-0.3-0.5-0.5-0.9-0.6c-0.3-0.2-0.7-0.2-1.1-0.2v3.2h0.1c0.5,0.1,0.9,0.3,1.3,0.4
			c0.4,0.2,0.8,0.3,1.2,0.6c0.3,0.2,0.6,0.5,0.8,0.9C-348.1,405.6-348,406.1-348,406.7z M-352.6,400.2c-0.4,0.1-0.7,0.2-1,0.5
			c-0.3,0.3-0.4,0.6-0.4,1c0,0.2,0,0.4,0.1,0.6c0.1,0.2,0.2,0.3,0.3,0.4c0.1,0.1,0.3,0.2,0.5,0.3c0.2,0.1,0.4,0.1,0.6,0.2v-3H-352.6
			z M-350,406.8c0-0.2-0.1-0.4-0.2-0.6c-0.1-0.2-0.2-0.3-0.4-0.4c-0.2-0.1-0.3-0.2-0.5-0.3c-0.2-0.1-0.4-0.1-0.6-0.2v3.2
			c0.2,0,0.4-0.1,0.6-0.2c0.2-0.1,0.4-0.2,0.5-0.3c0.2-0.1,0.3-0.3,0.4-0.5C-350.1,407.2-350,407-350,406.8z"/>
	</g>
</g>
</svg>
